<svg width="733" height="688" viewBox="0 0 733 688" fill="none" xmlns="http://www.w3.org/2000/svg">
<path d="M474.379 108.453C463.06 89.0719 462.074 67.096 468.527 48.0385C469.927 44.5453 474.346 44.2579 476.462 47.2266L496.769 81.9984C497.435 83.1384 498.671 83.9456 500.025 84.3012L544.337 90.1467C546.262 90.1695 548.423 89.2893 548.897 87.4835L565.697 45.5652C566.052 44.2108 565.957 42.7378 565.291 41.5978L544.984 6.82607C542.986 3.40589 545.859 -0.183083 549.589 0.313925C569.81 4.17613 588.347 16.2833 599.785 35.2128C612.768 57.4439 612.687 83.4831 601.911 104.301C600.748 106.891 600.37 110.17 602.153 112.569L667.098 204.084L599.344 241.78L541.16 148.19C539.828 145.91 536.905 144.177 534.078 143.917C510.2 142.955 487.481 130.232 474.379 108.453Z" fill="#EF481A"/>
<path d="M235.516 147.332C246.835 127.951 247.82 105.975 241.368 86.918C239.968 83.4248 235.549 83.1374 233.433 86.1061L213.125 120.878C212.459 122.018 211.224 122.825 209.869 123.181L165.557 129.026C163.633 129.049 161.471 128.169 160.997 126.363L144.197 84.4447C143.842 83.0903 143.937 81.6173 144.603 80.4773L164.911 45.7056C166.908 42.2854 164.035 38.6964 160.305 39.1934C140.085 43.0556 121.547 55.1628 110.11 74.0923C97.1261 96.3234 97.2077 122.363 107.983 143.18C109.146 145.771 109.525 149.049 107.741 151.448L52.4598 246.131L109.909 279.036L168.734 187.069C170.066 184.789 172.989 183.056 175.817 182.797C199.694 181.835 222.414 169.112 235.516 147.332Z" fill="#EF481A"/>
<path d="M439.025 212.007C455.318 212.007 468.527 225.337 468.527 241.78C468.527 254.673 460.218 265.551 448.859 269.692V291.402H429.191V269.692C417.832 265.551 409.523 254.673 409.523 241.78C409.523 225.337 422.732 212.007 439.025 212.007Z" fill="#EF481A"/>
<path d="M330.852 241.78C330.852 225.337 317.644 212.007 301.351 212.007C285.057 212.007 271.849 225.337 271.849 241.78C271.849 254.673 280.157 265.552 291.517 269.692L291.21 291.092L310.878 291.402L311.185 269.692C322.544 265.551 330.852 254.673 330.852 241.78Z" fill="#EF481A"/>
<path d="M675.038 219.45V317.765L606.201 294.504V257.907L675.038 219.45Z" fill="#EF481A"/>
<path d="M104.673 292.643L45.9769 259.148V346.917L104.673 324.587V292.643Z" fill="#EF481A"/>
<path d="M613.269 318.075L644.922 328.619C642.209 349.207 628.286 363.391 613.269 371.418C607.8 364.287 601.527 357.519 594.831 350.639C602.518 341.008 609.216 330.882 613.269 318.075Z" fill="#EF481A"/>
<path d="M123.419 376.38C110.479 369.365 103.189 360.531 97.6047 348.468L75.7859 356.531C80.51 377.722 92.7846 391.468 107.746 404.603C112.138 393.365 117.44 385 123.419 376.38Z" fill="#EF481A"/>
<path d="M529.681 323.346C516.641 315.742 504.581 311.562 498.028 311.562H242.347C235.795 311.562 223.735 315.742 210.694 323.346C182.009 342.151 155.918 363.61 136.94 390.957C128.61 403.132 124.341 414.531 124.341 420.73V459.4L117.2 459.902C89.541 461.846 67.6777 469.097 50.3367 481.967C33.0097 494.827 20.8475 512.814 11.751 535.097L0.964722 561.52L23.3478 543.814C55.2483 518.579 86.9495 506.578 130.025 509.551L143.618 510.489C156.797 528.185 171.259 544.329 187.41 558.25L183.294 562.224C153.836 590.663 135.66 621.353 139.682 660.683L142.343 686.702L153.875 663.227C168.923 632.593 186.642 612.068 214.321 588.629L221.739 582.347C230.439 586.797 237.942 589.136 242.347 589.136H507.862C512.686 589.136 521.507 585.832 531.376 579.255L536.738 583.688C567.665 609.263 589.726 631.847 602.761 662.828L613.191 687.621L617.094 661.008C620.633 636.882 613.488 615.995 602.815 598.439C592.299 581.143 578.079 566.646 566.799 555.147L562.417 550.677C573.941 538.28 584.676 524.785 593.596 510.842L605.361 509.836C650.149 506.007 682.739 517.968 715.411 543.814L732.965 557.7L727.321 536.041C712.972 480.963 663.418 465.421 620.875 459.658L616.035 459.002V420.73C616.035 414.531 611.765 403.132 603.435 390.957C595.105 378.782 582.993 365.716 569.939 353.74C556.885 341.763 542.722 330.95 529.681 323.346Z" fill="#EF481A"/>
</svg>
