<svg width="125" height="34" viewBox="0 0 125 34" fill="none" xmlns="http://www.w3.org/2000/svg">
<path d="M25.7656 0.5L41.0381 0.500977C41.2987 0.501012 41.8646 0.524354 42.4844 0.713867C43.1001 0.902205 43.9053 1.29942 44.4287 2.1416H44.4297C45.0263 3.10281 45.0838 4.32177 44.5439 5.3291V5.33008C44.0066 6.33123 42.9909 6.94482 41.8633 6.98047L41.8223 6.98145H41.8115V6.98047L41.7607 6.98242H41.7568C41.7246 7.02387 41.6878 7.07156 41.6484 7.12598C41.4538 7.39498 41.2383 7.73217 41.0107 8.08984L41.0078 8.09277L41.0088 8.09375C40.7985 8.42458 40.5703 8.78012 40.3115 9.16309L40.0312 9.61328C40.6273 10.1761 40.9845 10.5819 41.0967 10.7139C42.7425 12.6508 42.7429 15.4708 41.0977 17.4082L41.0967 17.4092C40.9519 17.5793 39.9638 18.7119 38.1826 20.0635C37.1526 20.8451 36.0481 21.5539 34.9014 22.1709V22.1719C33.6917 22.8224 32.4268 23.3715 31.1338 23.8125L25.9443 31.8408L25.9434 31.8398C25.2727 32.8783 24.1294 33.5009 22.8936 33.501C21.7349 33.5009 20.6574 32.9543 19.9746 32.0303L19.8438 31.8408L14.624 23.7676C13.3478 23.3243 12.1006 22.7746 10.9072 22.127C9.77557 21.5126 8.68703 20.8086 7.6709 20.0342C5.91471 18.6956 4.93981 17.5777 4.7959 17.4082V17.4072C3.15063 15.4703 3.14994 12.6506 4.7959 10.7139L4.99609 10.4873C5.16861 10.2979 5.4357 10.0183 5.79492 9.67578L5.63379 9.41797C5.47068 9.18272 5.31753 8.95233 5.1748 8.7334L4.76172 8.08887C4.53423 7.73133 4.31858 7.39482 4.12402 7.12598C4.08456 7.07146 4.04787 7.0239 4.01562 6.98242H4.0127L3.96191 6.98047V6.98145H3.95117L3.91113 6.98047C2.85354 6.94755 1.8944 6.40611 1.33594 5.51367L1.22949 5.33008C0.688942 4.32261 0.746839 3.10283 1.34375 2.1416C1.86724 1.29934 2.67315 0.902252 3.28906 0.713867C3.90883 0.524425 4.47466 0.501984 4.73535 0.501953L18.7275 0.500977L21.917 0.5H25.7656ZM30.2861 22.7207L24.8477 31.1318C24.4177 31.7979 23.6863 32.1952 22.8926 32.1953L22.8936 32.1963C23.6873 32.1962 24.4186 31.7979 24.8486 31.1318L30.2871 22.7207C30.4441 22.6705 30.6006 22.6181 30.7568 22.5645C30.6003 22.6182 30.4435 22.6704 30.2861 22.7207ZM22.6064 32.1787C22.6091 32.179 22.6117 32.1794 22.6143 32.1797C22.6117 32.1794 22.6091 32.179 22.6064 32.1787ZM22.459 32.1553C22.4881 32.1608 22.5174 32.1655 22.5469 32.1699C22.5174 32.1655 22.4881 32.1607 22.459 32.1553ZM22.3301 32.1279C22.3595 32.1352 22.3892 32.1413 22.4189 32.1475C22.3892 32.1413 22.3595 32.1352 22.3301 32.1279ZM22.2031 32.0918C22.2135 32.095 22.224 32.0975 22.2344 32.1006C22.224 32.0975 22.2135 32.095 22.2031 32.0918ZM22.0742 32.0488C22.0829 32.0521 22.0919 32.0545 22.1006 32.0576C22.0919 32.0545 22.0829 32.0521 22.0742 32.0488ZM21.6816 31.8574C21.7007 31.8691 21.7199 31.8805 21.7393 31.8916C21.7199 31.8805 21.7007 31.869 21.6816 31.8574ZM21.5801 31.792C21.5972 31.8037 21.6145 31.815 21.6318 31.8262C21.6145 31.815 21.5972 31.8037 21.5801 31.792ZM21.3643 31.624C21.3754 31.6337 21.3862 31.6438 21.3975 31.6533C21.3862 31.6438 21.3754 31.6337 21.3643 31.624ZM21.2705 31.5381C21.2783 31.5456 21.2861 31.5531 21.2939 31.5605C21.2861 31.5531 21.2783 31.5457 21.2705 31.5381ZM4.73535 3.19727C4.36892 3.19727 3.79607 3.30535 3.63477 3.56445C3.43606 3.88458 3.61699 4.27335 3.99414 4.28516L4.04297 4.28613C4.18389 4.28609 4.30901 4.26759 4.44824 4.26758C4.6521 4.2676 4.88656 4.30652 5.24512 4.49805C6.15532 4.98415 6.78943 6.36336 7.89062 7.93945L9.31445 10.2178C7.77854 11.3877 6.94717 12.3473 6.85156 12.46C6.06304 13.3877 6.0631 14.7353 6.85156 15.6631C6.9939 15.8304 10.3144 19.6754 16.3701 21.501L22.1084 30.3779C22.281 30.645 22.5743 30.8046 22.8926 30.8047C23.2108 30.8046 23.5041 30.6448 23.6768 30.3779L29.3916 21.5391C35.5319 19.7291 38.8979 15.8302 39.04 15.6631C39.8283 14.735 39.8285 13.3877 39.04 12.46C38.9418 12.3445 38.0827 11.3553 36.5049 10.1641L38.0371 7.71289C39.0433 6.23287 39.6601 4.96064 40.5264 4.49805C40.8849 4.30655 41.1194 4.26759 41.3232 4.26758C41.4622 4.2676 41.5878 4.28612 41.7285 4.28613L41.7773 4.28516C42.1542 4.27327 42.3355 3.88457 42.1367 3.56445C41.9754 3.30537 41.4036 3.19738 41.0371 3.19727H25.7646L25.7666 3.19824H20.0049L20.0068 3.19727H4.73535ZM30.9492 22.4961C31.0594 22.4572 31.1696 22.4185 31.2793 22.3779C31.1696 22.4185 31.0594 22.4572 30.9492 22.4961ZM31.3711 22.3428C31.4951 22.2963 31.6188 22.2488 31.7422 22.2002C31.6188 22.2488 31.4951 22.2963 31.3711 22.3428ZM31.9277 22.126C32.0207 22.0884 32.1135 22.0505 32.2061 22.0117C32.1135 22.0505 32.0207 22.0884 31.9277 22.126ZM32.4043 21.9277C32.498 21.8875 32.5913 21.8462 32.6846 21.8047C32.5913 21.8462 32.498 21.8875 32.4043 21.9277ZM38.9658 17.7139C38.5513 18.0944 38.0259 18.5439 37.3926 19.0244C36.4171 19.7646 35.3708 20.4372 34.2832 21.0225C33.8222 21.2703 33.352 21.5019 32.876 21.7188C33.1869 21.5772 33.496 21.4304 33.8008 21.2754L34.2842 21.0225C35.3718 20.4372 36.4181 19.7646 37.3936 19.0244C38.0267 18.544 38.5515 18.0943 38.9658 17.7139ZM22.9453 8.50586C29.5535 8.506 34.6057 11.6747 36.7998 13.3359C37.2864 13.7047 37.2864 14.4193 36.7998 14.7881C34.6062 16.4493 29.5527 19.6171 22.9453 19.6172C16.338 19.6172 11.2863 16.4494 9.0918 14.7881C8.60463 14.4192 8.60459 13.7039 9.0918 13.335C11.2863 11.6735 16.3377 8.50586 22.9453 8.50586ZM23.2529 9.64551C23.1062 9.50644 22.8783 9.50659 22.7314 9.64551C22.0889 10.2557 20.4807 11.9869 20.4805 14.0264C20.4805 16.0659 22.0888 17.7969 22.7314 18.4072C22.8783 18.5464 23.1061 18.5465 23.2529 18.4072C23.896 17.7967 25.5039 16.066 25.5039 14.0264C25.5036 11.9866 23.8958 10.2557 23.2529 9.64551ZM40.2979 16.3125C40.3045 16.3032 40.3118 16.2945 40.3184 16.2852C40.3118 16.2945 40.3045 16.3032 40.2979 16.3125ZM40.4844 16.0283C40.4896 16.0195 40.4949 16.0108 40.5 16.002C40.4949 16.0108 40.4896 16.0195 40.4844 16.0283ZM40.6924 15.6191C40.7276 15.5398 40.7624 15.4608 40.792 15.3799C40.7624 15.4608 40.7276 15.5398 40.6924 15.6191ZM5.10742 15.4023C5.11627 15.4261 5.12738 15.449 5.13672 15.4727C5.12738 15.449 5.11627 15.4261 5.10742 15.4023ZM40.8193 15.2979C40.8446 15.2236 40.8691 15.1495 40.8896 15.0742C40.8691 15.1495 40.8446 15.2237 40.8193 15.2979ZM5.00488 15.0869C5.01471 15.1224 5.02722 15.1571 5.03809 15.1924C5.02722 15.1571 5.01471 15.1224 5.00488 15.0869ZM40.9297 14.9023C40.9403 14.8551 40.9521 14.8083 40.9609 14.7607C40.9521 14.8083 40.9403 14.8551 40.9297 14.9023ZM4.92969 14.7607C4.93825 14.807 4.95067 14.8525 4.96094 14.8984C4.95067 14.8524 4.93824 14.807 4.92969 14.7607ZM40.9863 14.5918C40.994 14.5371 41.0016 14.4826 41.0068 14.4277C41.0016 14.4826 40.9939 14.5371 40.9863 14.5918ZM4.88477 14.4404C4.88836 14.4767 4.89478 14.5126 4.89941 14.5488C4.89478 14.5126 4.88836 14.4767 4.88477 14.4404ZM41.0176 14.2637C41.0205 14.2093 41.0239 14.155 41.0244 14.1006C41.0239 14.155 41.0204 14.2093 41.0176 14.2637ZM4.86621 14.1055C4.86678 14.1544 4.87062 14.2031 4.87305 14.252C4.87062 14.2031 4.86677 14.1544 4.86621 14.1055ZM41.0215 13.9648C41.0198 13.897 41.018 13.8294 41.0127 13.7617C41.018 13.8294 41.0198 13.8971 41.0215 13.9648ZM4.87598 13.7891C4.87282 13.8336 4.87172 13.8782 4.87012 13.9229C4.87173 13.8782 4.87281 13.8336 4.87598 13.7891ZM40.999 13.6357C40.992 13.5728 40.9847 13.5099 40.9746 13.4473C40.9847 13.5099 40.992 13.5728 40.999 13.6357ZM4.91504 13.4502C4.907 13.5002 4.90156 13.5504 4.89551 13.6006C4.90157 13.5504 4.90699 13.5002 4.91504 13.4502ZM40.9473 13.3008C40.9349 13.2397 40.9226 13.1787 40.9072 13.1182C40.9226 13.1787 40.9349 13.2397 40.9473 13.3008ZM4.98047 13.1328C4.96847 13.181 4.95932 13.2298 4.94922 13.2783C4.95933 13.2298 4.96846 13.181 4.98047 13.1328ZM40.8701 12.9893C40.8512 12.9242 40.832 12.8592 40.8096 12.7949C40.832 12.8592 40.8512 12.9242 40.8701 12.9893ZM5.07617 12.8086C5.05757 12.8625 5.04152 12.9171 5.02539 12.9717C5.04153 12.9171 5.05756 12.8625 5.07617 12.8086ZM40.7646 12.6768C40.7399 12.6128 40.7138 12.5493 40.6855 12.4863C40.7138 12.5493 40.7399 12.6128 40.7646 12.6768ZM5.19336 12.5107C5.17341 12.556 5.15484 12.6017 5.13672 12.6475C5.15485 12.6017 5.1734 12.556 5.19336 12.5107ZM40.3848 11.9365C40.4006 11.9605 40.4164 11.9845 40.4316 12.0088C40.4164 11.9845 40.4006 11.9605 40.3848 11.9365ZM41.1826 5.72559C40.8574 5.89975 40.3534 6.69139 39.9092 7.38965L39.9072 7.39355C39.6891 7.7367 39.463 8.09133 39.2051 8.47168L38.3428 9.85156C38.7359 10.1856 39.0652 10.4894 39.3291 10.7461C39.0654 10.4895 38.7367 10.1854 38.3438 9.85156L39.2061 8.47168C39.464 8.09133 39.69 7.73671 39.9082 7.39355L39.9102 7.38965C40.3544 6.69137 40.8584 5.8997 41.1836 5.72559C41.265 5.68212 41.3121 5.66597 41.3301 5.66016C41.351 5.66043 41.3775 5.66101 41.4072 5.66309C41.3771 5.6609 41.3502 5.65946 41.3291 5.65918C41.3113 5.66493 41.2643 5.68193 41.1826 5.72559ZM4.47461 6.96387C4.47739 6.96379 4.48004 6.96393 4.48145 6.96387C4.48271 6.96373 4.48382 6.96292 4.48438 6.96289C4.48291 6.96298 4.4797 6.96351 4.47461 6.96387ZM41.293 6.96387C41.2943 6.96391 41.2964 6.96379 41.2988 6.96387C41.2944 6.96356 41.2916 6.96301 41.29 6.96289C41.2907 6.96299 41.2918 6.96382 41.293 6.96387ZM4.36035 5.66406L4.3418 5.66504C4.2508 5.67133 4.1525 5.67772 4.04297 5.67773H4.04395C4.15349 5.67772 4.25177 5.67133 4.34277 5.66504L4.36133 5.66406C4.39309 5.66178 4.42132 5.66044 4.44336 5.66016C4.45578 5.66417 4.48062 5.67572 4.52246 5.69531C4.47995 5.67506 4.4548 5.66319 4.44238 5.65918C4.42035 5.65947 4.3921 5.66177 4.36035 5.66406ZM41.8105 5.67676L41.7393 5.67773H41.7402L41.8115 5.67676H41.8105ZM42.1318 5.64062C42.1462 5.63782 42.1605 5.63496 42.1748 5.63184C42.1605 5.63497 42.1462 5.63781 42.1318 5.64062ZM42.3486 5.58496C42.3591 5.58157 42.3695 5.57779 42.3799 5.57422C42.3695 5.57779 42.3591 5.58157 42.3486 5.58496ZM3.36816 5.56738C3.37814 5.57096 3.38839 5.57374 3.39844 5.57715C3.38838 5.57375 3.37814 5.57095 3.36816 5.56738ZM42.5479 5.50781C42.5574 5.50345 42.5667 5.49866 42.5762 5.49414C42.5667 5.49867 42.5574 5.50345 42.5479 5.50781ZM3.16406 5.48047C3.17083 5.48387 3.17776 5.48692 3.18457 5.49023C3.17776 5.48692 3.17083 5.48386 3.16406 5.48047ZM42.7715 5.38574C42.757 5.39505 42.7423 5.40419 42.7275 5.41309C42.7424 5.4042 42.7569 5.39505 42.7715 5.38574ZM2.96973 5.36621C2.97753 5.37144 2.98528 5.37673 2.99316 5.38184C2.98527 5.37673 2.97754 5.37143 2.96973 5.36621ZM42.875 5.31348C42.8952 5.29848 42.916 5.2844 42.9355 5.26855C42.916 5.2844 42.8952 5.29847 42.875 5.31348ZM2.7959 5.23438C2.79922 5.23723 2.80233 5.24033 2.80566 5.24316C2.80232 5.24033 2.79922 5.23723 2.7959 5.23438ZM43.0381 5.17676C43.0576 5.15825 43.0769 5.13954 43.0957 5.12012C43.077 5.13954 43.0576 5.15825 43.0381 5.17676ZM43.1914 5.0127C43.206 4.99496 43.2194 4.97636 43.2334 4.95801C43.2194 4.97636 43.206 4.99497 43.1914 5.0127ZM42.9463 2.40137C43.038 2.47809 43.1243 2.56454 43.2021 2.66211L43.3203 2.83008C43.6785 3.4072 43.7065 4.12881 43.3936 4.71289C43.3742 4.74892 43.3544 4.78504 43.333 4.81934L43.3945 4.71289C43.7075 4.12882 43.6795 3.40719 43.3213 2.83008L43.2031 2.66211C43.1251 2.56433 43.0383 2.47822 42.9463 2.40137ZM2.6875 2.53027C2.66543 2.55291 2.64413 2.57652 2.62305 2.60059C2.64415 2.57652 2.66541 2.55291 2.6875 2.53027ZM2.81738 2.40918C2.79252 2.43023 2.76907 2.45306 2.74512 2.47559C2.76909 2.45306 2.7925 2.43022 2.81738 2.40918ZM42.9326 2.3916C42.8912 2.35759 42.8491 2.32512 42.8057 2.29492C42.8491 2.32512 42.8912 2.35759 42.9326 2.3916ZM2.96289 2.29785C2.9389 2.31463 2.915 2.33168 2.8916 2.34961C2.91502 2.33169 2.93889 2.31462 2.96289 2.29785ZM42.7871 2.28223C42.7461 2.25435 42.7045 2.22786 42.6621 2.20312C42.7045 2.22786 42.7461 2.25434 42.7871 2.28223ZM3.10352 2.20801C3.08379 2.21963 3.06438 2.23184 3.04492 2.24414C3.06439 2.23185 3.08378 2.21963 3.10352 2.20801ZM42.6387 2.18945C42.5962 2.16536 42.5531 2.14326 42.5098 2.12207C42.5531 2.14327 42.5963 2.16535 42.6387 2.18945ZM3.28223 2.11328C3.25203 2.12775 3.22123 2.14138 3.19141 2.15723C3.22125 2.14139 3.25202 2.12774 3.28223 2.11328ZM42.2334 2.00586C42.3173 2.03581 42.4014 2.06993 42.4844 2.10938C42.4014 2.06995 42.3173 2.03579 42.2334 2.00586ZM3.45215 2.03906C3.41651 2.05313 3.38017 2.06623 3.34473 2.08203C3.38018 2.06625 3.4165 2.05312 3.45215 2.03906ZM3.80078 1.9248C3.78837 1.92804 3.77615 1.93214 3.76367 1.93555C3.77615 1.93215 3.78837 1.92803 3.80078 1.9248ZM41.9648 1.9248C41.9072 1.90994 41.8505 1.89713 41.7949 1.88574C41.8505 1.89714 41.9073 1.90993 41.9648 1.9248ZM4.27832 1.83594C4.20323 1.84514 4.12335 1.85745 4.04004 1.87305C4.12336 1.85748 4.20324 1.84512 4.27832 1.83594ZM41.6826 1.86328C41.6082 1.85043 41.5369 1.84079 41.4697 1.83301C41.5369 1.84081 41.6083 1.85042 41.6826 1.86328ZM4.55078 1.81055C4.47747 1.8144 4.39297 1.82128 4.30078 1.83203C4.39307 1.82128 4.47744 1.81439 4.55078 1.81055ZM25.7646 1.80469L41.0371 1.80566C41.1268 1.80568 41.2657 1.81019 41.4336 1.82812C41.3565 1.8199 41.2855 1.81385 41.2227 1.81055L41.0381 1.80566L25.7656 1.80469H25.7646ZM41.9473 5.66895C41.9489 5.66879 41.9505 5.66813 41.9521 5.66797C41.9089 5.67224 41.8653 5.67536 41.8213 5.67676H41.8223L41.9473 5.66895ZM40.6299 15.7568C40.6409 15.7343 40.6525 15.7121 40.6631 15.6895C40.6525 15.7121 40.6409 15.7343 40.6299 15.7568Z" fill="white"/>
<path d="M75.3203 2.98242C75.4507 2.98248 75.5874 3.01178 75.71 3.0791L75.8145 3.13574V3.14258C76.9599 3.82866 77.5151 5.12492 77.6953 6.50195C77.8814 7.92438 77.6767 9.47514 77.2734 10.6475C76.8702 11.8193 75.6973 13.8137 73.8564 15.6416C72.013 17.472 69.4838 19.1518 66.3613 19.666C66.3195 19.6729 66.2938 19.6984 66.2832 19.7256C66.2733 19.7514 66.2759 19.7789 66.2979 19.8037C68.2762 22.0426 71.5367 22.0107 73.5859 21.1084C74.8921 20.5333 75.8046 19.3106 76.2979 18.4863C76.5153 18.1231 77.0928 18.2679 77.0928 18.7021V23.7656C77.0926 24.1292 76.7902 24.4131 76.4307 24.4131L62.7627 24.4141C62.3551 24.4141 61.9763 24.2208 61.7363 23.9014C59.9369 21.5053 58.794 17.8183 58.7939 13.6982C58.7939 9.57814 59.9365 5.89119 61.7363 3.49512C61.9763 3.17567 62.3547 2.98242 62.7627 2.98242H75.3203ZM69.0439 5.33105C67.8311 5.33112 66.8982 5.78982 66.1943 6.54883C65.4854 7.3133 65.0019 8.39156 64.7148 9.63281C64.1404 12.1168 64.369 15.1942 65.0869 17.5273C65.1176 17.6274 65.2423 17.6944 65.3584 17.6514L65.7568 17.4971C69.8054 15.8539 71.5432 12.8494 71.8242 10.2412C71.9697 8.89066 71.724 7.65176 71.2139 6.75781C70.7046 5.8654 69.9435 5.33105 69.0439 5.33105Z" fill="#FFFFFF" stroke="#FFFFFF" stroke-width="0.400664"/>
<path d="M102.008 2.9834C102.224 2.98342 102.5 3.01386 102.748 3.08203C102.872 3.11619 102.996 3.16145 103.104 3.2207C103.21 3.27911 103.314 3.35741 103.383 3.46484C103.528 3.69137 103.54 3.95509 103.433 4.16895C103.324 4.38457 103.103 4.53143 102.826 4.54004C102.603 4.54684 102.426 4.50257 102.293 4.4873C102.152 4.47109 101.975 4.46905 101.653 4.54688C101.273 4.63887 101.002 4.7731 100.806 4.93945C100.61 5.1047 100.478 5.3106 100.388 5.56152C100.201 6.07827 100.198 6.7622 100.198 7.64062V28.542C100.198 30.1842 98.8259 31.5048 97.1465 31.5049H83.5957C83.2336 31.5049 82.9287 31.2186 82.9287 30.8525V26.3174C82.9287 25.9038 83.3796 25.6757 83.7227 25.8652C84.203 26.1307 84.971 26.6296 85.8398 27.4766C86.8749 28.4857 88.2677 29.0741 89.7334 29.0742H92.0703C93.4577 29.0741 94.5712 27.9867 94.5713 26.6582V24.5947C94.571 24.501 94.4904 24.4141 94.3779 24.4141H85.2666C84.8636 24.414 84.4893 24.2234 84.252 23.9082V23.9072C82.4501 21.5112 81.3057 17.8214 81.3057 13.6982C81.3057 9.57483 82.4499 5.88536 84.252 3.48926C84.4893 3.17361 84.8635 2.98242 85.2666 2.98242L102.008 2.9834ZM93.8906 6.34961C92.4793 5.1212 90.3566 5.40361 88.8809 6.83203C87.6452 8.0282 86.5303 10.2413 86.5303 13.3086C86.5303 15.4286 86.9287 17.5437 87.5869 19.1221C87.9162 19.9117 88.3062 20.5573 88.7354 21.002C89.1639 21.4459 89.6178 21.6767 90.082 21.6768H94.3779C94.4904 21.6767 94.5711 21.5898 94.5713 21.4961V7.87305C94.5712 7.29365 94.3312 6.7334 93.8906 6.34961Z" fill="#FFFFFF" stroke="#FFFFFF" stroke-width="0.400664"/>
<path d="M120.13 2.98242C120.533 2.98252 120.907 3.17416 121.145 3.48926C122.946 5.88537 124.091 9.57467 124.091 13.6982C124.091 17.8219 122.946 21.5124 121.144 23.9082C120.906 24.2233 120.532 24.4141 120.129 24.4141H108.614C108.211 24.414 107.837 24.2234 107.6 23.9082V23.9072C105.798 21.5112 104.653 17.8214 104.653 13.6982C104.653 9.57482 105.798 5.88536 107.6 3.48926C107.837 3.17361 108.211 2.98242 108.614 2.98242H120.13ZM114.372 5.34375C113.114 5.34375 112.057 5.98317 111.304 7.33984C110.545 8.7074 110.1 10.7995 110.1 13.668C110.1 16.5365 110.545 18.6286 111.304 19.9961C112.057 21.3528 113.114 21.9922 114.372 21.9922C115.63 21.9921 116.687 21.3527 117.439 19.9961C118.198 18.6286 118.644 16.5366 118.644 13.668C118.644 10.7993 118.198 8.70739 117.439 7.33984C116.687 5.98326 115.63 5.34384 114.372 5.34375Z" fill="#FFFFFF" stroke="#FFFFFF" stroke-width="0.400664"/>
</svg>
