<?xml version="1.0" encoding="utf-8"?>
<!-- Generator: Adobe Illustrator 28.1.0, SVG Export Plug-In . SVG Version: 6.00 Build 0)  -->
<svg version="1.1" id="Layer_1" xmlns="http://www.w3.org/2000/svg" xmlns:xlink="http://www.w3.org/1999/xlink" x="0px" y="0px"
	 viewBox="0 0 210 50" style="enable-background:new 0 0 210 50;" xml:space="preserve">
<style type="text/css">
	.st0{clip-path:url(#SVGID_00000099622647991102749640000011063343264366002344_);}
	.st1{fill:#FFFFFF;}
	.st2{clip-path:url(#SVGID_00000031197672924387036420000003306982132118668990_);}
</style>
<g>
	<g>
		<g>
			<g>
				<defs>
					<polygon id="SVGID_1_" points="40,50 0,30 40,0 					"/>
				</defs>
				<clipPath id="SVGID_00000155835386400367994970000012727817145146647952_">
					<use xlink:href="#SVGID_1_"  style="overflow:visible;"/>
				</clipPath>
				<g style="clip-path:url(#SVGID_00000155835386400367994970000012727817145146647952_);">
					<rect x="-7.7" y="15.9" transform="matrix(0.8 -0.5999 0.5999 0.8 -6.979 15.3567)" class="st1" width="54.5" height="4.5"/>
				</g>
			</g>
		</g>
	</g>
	<g>
		<g>
			<g>
				<defs>
					<polygon id="SVGID_00000052787348870745910530000016676006297904846489_" points="40,50 0,30 40,0 					"/>
				</defs>
				<clipPath id="SVGID_00000017515594230173746010000003299213498010038662_">
					<use xlink:href="#SVGID_00000052787348870745910530000016676006297904846489_"  style="overflow:visible;"/>
				</clipPath>
				<g style="clip-path:url(#SVGID_00000017515594230173746010000003299213498010038662_);">
					<polygon class="st1" points="40,119.5 35.5,119.5 35.5,20.5 -2.7,49.2 -5.4,45.6 40,11.5 					"/>
				</g>
			</g>
		</g>
	</g>
</g>
<g>
	<g>
		<path class="st1" d="M58.1,22c-1.4,0-2.8,0-4.1,0c0-7.4,0-14.6,0-22c4.8,0,9.7,0,14.6,0c0,1.2,0,2.4,0,3.7c-3.5,0-6.9,0-10.6,0
			c0,1.8,0,3.4,0,5.2c3.3,0,6.6,0,10,0c0,1.3,0,2.5,0,3.8c-3.3,0-6.7,0-10.1,0C58.1,15.9,58.1,18.9,58.1,22z"/>
		<polygon class="st1" points="83.1,0 87.7,0 93.2,9.8 98.6,0 103,0.1 95.2,14.1 95.2,22 91.1,22 91.1,14.1 		"/>
		<path class="st1" d="M72.4,0c1.3,0,2.5,0,4,0c0,6.1,0,12.1,0,18.3c3.6,0,7,0,10.4,0c0,1.3,0,2.5,0,3.7c-4.8,0-9.6,0-14.4,0
			C72.4,14.7,72.4,7.4,72.4,0z"/>
		<polygon class="st1" points="120.6,0 125.2,0 130.7,9.8 136.1,0 140.5,0.1 132.7,14.1 132.7,22 128.6,22 128.6,14.1 		"/>
		<path class="st1" d="M104.8,22V0c0,0,6.7,0,9.4,0c3.7,0.1,6.3,2.6,5.9,5.9c-0.1,1.7-0.8,2.5-2.9,4.3c2.6,1.2,4.2,3.5,3.8,6.2
			s-2.4,4.8-5.2,5.4c-1.2,0.2-2.4,0.2-3.7,0.2C109.7,22,104.8,22,104.8,22z M108.8,18c2,0,3.8,0.1,5.6,0c1.4-0.1,2.5-1.4,2.5-2.7
			s-1-2.6-2.5-2.8c-1.9-0.1-3.7,0-5.6,0C108.8,14.3,108.8,16.2,108.8,18z M108.8,8.8c1.6,0,3.2,0.1,4.8,0c1.3-0.1,2.3-1.3,2.3-2.6
			c0-1.2-1-2.2-2.4-2.3c-1.5-0.1-3.1,0-4.7,0C108.8,5.5,108.8,7.2,108.8,8.8z"/>
	</g>
	<g>
		<path class="st1" d="M82.3,49.8h-4.9l-5.6-8.6h-3.4v8.5h-3.9V28.1c0,0,6.9-0.2,10.2,0.1c2.9,0.2,5,2.6,5.5,5.2
			c0.3,2.8-1.2,6-4.1,7C78.2,43.5,82.3,49.8,82.3,49.8z M68.5,37.3c1.9,0,3.6,0.1,5.3,0c1.4-0.1,2.4-1.5,2.3-2.9
			c-0.1-1.4-1-2.4-2.4-2.5c-1.7-0.1-3.5,0-5.3,0C68.5,33.7,68.5,35.4,68.5,37.3z"/>
		<path class="st1" d="M194,42.3c1.3,0,2.5,0,3.7,0c0.1,0.1,0.1,0.2,0.1,0.3c0.5,3.4,3.9,5,7,3.4c1-0.5,1.5-1.2,1.5-2.3
			s-0.7-1.7-1.6-2.1c-1.3-0.4-2.6-0.8-3.9-1.2c-1.2-0.3-2.3-0.8-3.4-1.3c-3.8-1.7-3.3-7.3-0.9-9.3c3.1-2.5,8.7-2.6,11.8,0.5
			c0.9,0.8,1.4,2.6,1.3,4h-3.3c0,0-0.1-2.1-2.7-2.7c-1.4-0.4-3.6-0.3-4.7,1c-0.9,1-0.7,2.9,0.5,3.5c0.9,0.4,1.9,0.8,2.8,1.1
			c1.4,0.4,2.9,0.8,4.3,1.3c2.1,0.8,3.4,2.3,3.5,4.6s-0.7,4.1-2.6,5.5c-3.3,2.2-8.5,1.7-11.3-0.9C194.6,46.2,194,44.4,194,42.3z"/>
		<polygon class="st1" points="155.6,49.8 151.5,49.8 151.5,31.7 144.4,31.7 144.4,28 162.8,28 162.8,31.7 155.6,31.7 		"/>
		<path class="st1" d="M165.7,28c1.3,0,2.6,0,3.9,0c0,7.3,0,14.5,0,21.8c-1.3,0-2.6,0-3.9,0C165.7,42.5,165.7,35.3,165.7,28z"/>
		<path class="st1" d="M105.3,49.8V28c0,0,6.6,0,9.3,0c3.7,0.1,6.2,2.6,5.9,5.9c-0.1,1.6-0.8,2.5-2.8,4.3c2.6,1.2,4.1,3.5,3.8,6.1
			s-2.4,4.8-5.1,5.3c-1.2,0.2-2.5,0.2-3.7,0.2C110.2,49.8,105.3,49.8,105.3,49.8z M109.3,45.9c2,0,3.8,0.1,5.6,0
			c1.4-0.1,2.5-1.4,2.5-2.7s-1-2.6-2.5-2.7c-1.9-0.1-3.7,0-5.6,0C109.3,42.2,109.3,44,109.3,45.9z M109.3,36.7c1.6,0,3.2,0.1,4.8,0
			c1.3-0.1,2.3-1.3,2.3-2.6c0-1.2-1-2.2-2.4-2.3c-1.5-0.1-3.1,0-4.7,0C109.3,33.5,109.3,35.1,109.3,36.7z"/>
		<path class="st1" d="M82,38.9c0-5.5,3.5-9.9,8.4-10.7c8.2-1.3,13,5.1,12.4,11.7c-0.4,5.1-3.7,8.9-8.2,9.7
			C87.5,50.8,82,46.1,82,38.9z M92.3,46.1c3.9,0,6.5-3.2,6.5-7.1c0-4.7-2.8-7.3-6.4-7.3c-3.5,0-6.5,3.2-6.5,7.2
			C85.9,43.2,88.6,46.1,92.3,46.1z"/>
		<path class="st1" d="M123.2,38.9c0-5.5,3.5-9.9,8.4-10.7c8.2-1.3,13,5.1,12.4,11.7c-0.4,5.1-3.7,8.9-8.2,9.7
			C128.7,50.8,123.2,46.1,123.2,38.9z M133.7,46.1c3.9,0,6.5-3.2,6.5-7.1c0-4.7-2.8-7.3-6.4-7.3c-3.5,0-6.5,3.2-6.5,7.2
			C127.1,43.2,129.9,46.1,133.7,46.1z"/>
		<path class="st1" d="M192.3,35.3c0,0-2.7,0-3.9,0c-1.4-3.2-3.8-4.4-7.1-3.5c-1.3,0.3-2.4,1.1-3.1,2.3c-1.9,2.8-1.6,7.1,0.4,9.8
			c2,2.5,6.6,2.4,8.3,0.8c1.6-1.5,1.9-3.1,1.9-3.1h3.5c0,0-0.5,8.2-8.6,8.2c-5.9,0-10.5-4.3-10.6-10.5S176.2,28,183,28
			C191.4,28,192.3,35.3,192.3,35.3z"/>
	</g>
</g>
</svg>
