<svg xmlns="http://www.w3.org/2000/svg" width="589" height="335" fill="none"><path fill="url(#a)" d="M31.554 333.655C24.542 330.149 0 84.732 0 84.732s171.792-17.064 178.804-14.024c7.011 3.04 42.071 31.556 42.071 31.556-10.518 31.554 10.518 59.602 21.036 66.614l-10.518 28.047v14.024c0 14.026-14.024 35.057-14.024 35.057v73.625s-178.803 17.53-185.815 14.024Z"/><path fill="url(#b)" d="M231.394 261.225c-.004-3.507 119.202 0 119.202 0s-.004 49.081-3.506 49.084c-3.501.002-115.693 3.506-115.696 0-.004-3.506.004-45.577 0-49.084Z"/><path fill="url(#c)" d="M283.982 200.065h-42.071c0 7.012-9.349 33.891-17.53 49.084h59.601v-49.084Z"/><path fill="url(#d)" d="M354.101 136.958H227.887c30.852 25.243 26.879 43.24 21.036 49.083h101.672l3.506-49.083Z"/><path fill="url(#e)" d="M227.887 94.887 203.345 73.85h77.131v49.083h-56.095l3.506-28.047Z"/><path fill="url(#f)" d="M298.006 122.934V73.851l129.72 3.506c-3.506 3.506-3.506 49.083-3.506 49.083s-88.817-4.674-126.214-3.506Z"/><path fill="url(#g)" d="M298.003 249.148v-49.084c-2.805-2.804 81.809 1.17 122.711 3.507 0 3.506-3.509 49.083-3.509 49.083s-81.805-3.506-119.202-3.506Z"/><path fill="url(#h)" d="M364.619 312.256v-49.084l115.696 7.012c2.338 16.361-3.506 49.084-3.506 49.084s-77.131-5.844-112.19-7.012Z"/><path fill="url(#i)" d="M368.125 186.041v-49.083l126.214 10.518c-3.506 3.506-7.012 45.577-7.012 45.577s-81.805-5.843-119.202-7.012Z"/><path fill="url(#j)" d="M368.125 186.041v-49.083l126.214 10.518c-3.506 3.506-7.012 45.577-7.012 45.577s-81.805-5.843-119.202-7.012Z"/><path fill="url(#k)" d="M546.928 277.256s-49.004-3.53-49.084-3.441c-.079.089-7.011 48.959-7.011 48.959l52.589 3.565c-.778-19.165 3.506-49.083 3.506-49.083Z"/><path fill="url(#l)" d="M546.928 277.256s-49.004-3.53-49.084-3.441c-.079.089-7.011 48.959-7.011 48.959l52.589 3.565c-.778-19.165 3.506-49.083 3.506-49.083Z"/><path fill="url(#m)" d="m431.232 252.67 3.36-47.051c42.071 1.168 122.854 8.47 122.854 8.47s-2.053 49.11-7.011 49.099c-7.012-.016-84.143-10.533-119.203-10.518Z"/><path fill="#D9D9D9" d="m504.857 196.559 3.506-49.083c19.775-1.163 55.76 6.936 56.093 7.011.002-.01.002-.01.002.001l-.002-.001c-.102.666-3.556 45.578-7.01 45.578-2.804 0-36.228-2.337-52.589-3.506Z"/><path fill="url(#n)" d="m504.857 196.559 3.506-49.083c19.775-1.163 55.76 6.936 56.093 7.011.002-.01.002-.01.002.001l-.002-.001c-.102.666-3.556 45.578-7.01 45.578-2.804 0-36.228-2.337-52.589-3.506Z"/><path fill="url(#o)" d="M466.292 77.314c-5.395-15.592-9.348-25.745-17.53-45.577C499.99 21.933 575.051-2.345 574.976.184c-.075 2.528 7.97 28.291 14.024 45.577-46.09 11.702-72.638 17.709-122.708 31.553Z"/><path fill="url(#p)" d="M466.292 77.314c-5.395-15.592-9.348-25.745-17.53-45.577C499.99 21.933 575.051-2.345 574.976.184c-.075 2.528 7.97 28.291 14.024 45.577-46.09 11.702-72.638 17.709-122.708 31.553Z"/><defs><linearGradient id="a" x1="10.518" x2="231.393" y1="196.559" y2="196.559" gradientUnits="userSpaceOnUse"><stop stop-color="#F04536"/><stop offset="1" stop-color="#FAAB3F"/></linearGradient><linearGradient id="b" x1="231.395" x2="350.597" y1="285.769" y2="285.769" gradientUnits="userSpaceOnUse"><stop stop-color="#EF4333"/><stop offset="1" stop-color="#FBA940"/></linearGradient><linearGradient id="c" x1="234.899" x2="283.982" y1="224.607" y2="224.607" gradientUnits="userSpaceOnUse"><stop stop-color="#F04533"/><stop offset="1" stop-color="#FBA740"/></linearGradient><linearGradient id="d" x1="248.923" x2="350.595" y1="161.5" y2="161.5" gradientUnits="userSpaceOnUse"><stop stop-color="#F04533"/><stop offset="1" stop-color="#FBA240"/></linearGradient><linearGradient id="e" x1="227.887" x2="280.476" y1="98.393" y2="98.393" gradientUnits="userSpaceOnUse"><stop stop-color="#F04533"/><stop offset="1" stop-color="#FBA240"/></linearGradient><linearGradient id="f" x1="298.006" x2="424.22" y1="98.393" y2="98.393" gradientUnits="userSpaceOnUse"><stop stop-color="#F04533"/><stop offset="1" stop-color="#FBA240"/></linearGradient><linearGradient id="g" x1="298.006" x2="417.208" y1="224.607" y2="224.607" gradientUnits="userSpaceOnUse"><stop stop-color="#F04533"/><stop offset="1" stop-color="#FBA240"/></linearGradient><linearGradient id="h" x1="364.619" x2="480.315" y1="287.714" y2="294.726" gradientUnits="userSpaceOnUse"><stop stop-color="#F04633"/><stop offset="1" stop-color="#FBA740"/></linearGradient><linearGradient id="i" x1="431.232" x2="431.232" y1="136.958" y2="193.053" gradientUnits="userSpaceOnUse"><stop stop-color="#D9D9D9"/><stop offset="1" stop-color="#737373"/></linearGradient><linearGradient id="j" x1="389.161" x2="490.833" y1="165.006" y2="165.006" gradientUnits="userSpaceOnUse"><stop stop-color="#F04533"/><stop offset="1" stop-color="#FBA240"/></linearGradient><linearGradient id="k" x1="518.862" x2="518.862" y1="273.724" y2="326.337" gradientUnits="userSpaceOnUse"><stop stop-color="#D9D9D9"/><stop offset="1" stop-color="#737373"/></linearGradient><linearGradient id="l" x1="500.148" x2="545.374" y1="300.031" y2="300.031" gradientUnits="userSpaceOnUse"><stop stop-color="#F04533"/><stop offset="1" stop-color="#FBA240"/></linearGradient><linearGradient id="m" x1="434.738" x2="553.941" y1="231.619" y2="238.631" gradientUnits="userSpaceOnUse"><stop stop-color="#F04533"/><stop offset="1" stop-color="#FB9E40"/></linearGradient><linearGradient id="n" x1="514.791" x2="562.803" y1="173.714" y2="173.714" gradientUnits="userSpaceOnUse"><stop stop-color="#F04533"/><stop offset="1" stop-color="#FBA240"/></linearGradient><linearGradient id="o" x1="518.881" x2="518.881" y1="0" y2="77.314" gradientUnits="userSpaceOnUse"><stop stop-color="#D9D9D9"/><stop offset="1" stop-color="#737373"/></linearGradient><linearGradient id="p" x1="472.135" x2="585.105" y1="38.657" y2="38.657" gradientUnits="userSpaceOnUse"><stop stop-color="#F04533"/><stop offset="1" stop-color="#FBA240"/></linearGradient></defs></svg>