<svg width="991" height="251" viewBox="0 0 991 251" fill="none" xmlns="http://www.w3.org/2000/svg">
<g clip-path="url(#clip0_174_722)">
<path fill-rule="evenodd" clip-rule="evenodd" d="M139.072 0H210.701L210.53 45.5116H178.741C171.341 45.5116 164.329 48.8067 159.626 54.4946C158.42 55.9527 157.538 57.6489 157.039 59.4713L156.804 60.3285L155.812 63.9504L154.82 67.5723C154.161 69.9763 153.828 72.4568 153.828 74.9486V148.067C153.828 149.885 153.534 151.689 152.957 153.413L152.888 153.618C151.767 156.969 149.877 160.013 147.369 162.511C146.388 163.487 145.287 164.335 144.091 165.034L115.472 181.762V202.176L153.666 179.838C155.971 178.49 158.117 176.89 160.063 175.066C165.471 169.997 169.16 163.378 170.616 156.126L170.901 154.707C171.422 152.115 171.684 149.48 171.684 146.838V78.627C171.684 77.6412 171.816 76.6592 172.076 75.7073L172.574 73.8881C173.288 71.2853 174.755 68.9497 176.794 67.1732C178.189 65.9578 179.98 65.2876 181.834 65.2876H210.455L210.039 175.828L209.42 180.355C208.542 186.762 205.296 192.606 200.321 196.734C197.546 199.036 194.584 201.102 191.464 202.91L115.47 246.949V191.633V70.4626V23.6126C115.47 10.5717 126.038 0 139.072 0Z" fill="#9F9F9F"/>
<path fill-rule="evenodd" clip-rule="evenodd" d="M71.6286 0H0L0.171175 45.5116H31.9608C39.3605 45.5116 46.3724 48.8067 51.0764 54.4946C52.2822 55.9527 53.1639 57.6489 53.6629 59.4713L53.8978 60.3285L54.8898 63.9504L55.8817 67.5723C56.5401 69.9763 56.8737 72.4568 56.8737 74.9486V148.067C56.8737 149.885 57.1679 151.689 57.7448 153.413L57.8135 153.618C58.9351 156.969 60.8247 160.013 63.3324 162.511C64.3134 163.487 65.4147 164.335 66.6108 165.034L95.2307 181.762V70.4626V23.6126C95.2307 10.5717 84.6634 0 71.6286 0ZM95.2307 202.176V246.949L19.2363 202.91C16.1169 201.102 13.1545 199.036 10.3798 196.734C5.40514 192.606 2.15858 186.762 1.2813 180.355L0.661319 175.828L0.245556 65.2876H28.8677C30.7216 65.2876 32.5125 65.9578 33.9077 67.1732C35.9466 68.9497 37.4142 71.2853 38.1271 73.8881L38.6254 75.7073C38.886 76.6592 39.018 77.6412 39.018 78.627V146.838C39.018 149.48 39.2801 152.115 39.8005 154.707L40.0855 156.126C41.542 163.378 45.2305 169.997 50.6384 175.066C52.5847 176.89 54.7303 178.49 57.035 179.838L95.2307 202.176Z" fill="#9F9F9F"/>
<path d="M989.288 169.056C986.189 181.002 980.149 190.106 971.161 196.366C962.167 202.627 951.197 205.757 938.251 205.757C921.417 205.757 907.863 200.18 897.576 189.026C887.29 177.872 882.147 163.299 882.147 145.309C882.147 128.11 887.397 113.969 897.896 102.887C908.402 91.733 921.705 86.1557 937.818 86.1557C945.59 86.1557 952.527 87.3787 958.642 89.826C964.826 92.2005 969.863 95.3668 973.745 99.3245C977.703 103.283 980.977 107.997 983.568 113.465C986.227 118.934 988.096 124.475 989.175 130.089C990.329 135.702 990.937 141.603 991.013 147.791V151.354H901.352C902.067 163.083 905.736 172.33 912.353 179.095C919.046 185.788 927.532 189.134 937.818 189.134C945.878 189.134 952.746 187.479 958.429 184.168C964.111 180.858 967.925 175.82 969.863 169.056H989.288ZM901.565 135.378H970.942C970.082 125.159 966.808 117.135 961.126 111.307C955.512 105.406 947.747 102.455 937.818 102.455C927.752 102.455 919.516 105.441 913.112 111.415C906.784 117.387 902.933 125.375 901.565 135.378Z" fill="#9F9F9F"/>
<path d="M844.664 88.7417V111.733C847.468 103.458 851.639 97.4846 857.177 93.815C862.716 90.1448 869.91 88.3093 878.76 88.3093V107.308C876.815 107.308 874.369 107.523 871.421 107.955C868.975 108.315 866.78 108.819 864.842 109.467C862.898 110.042 860.809 110.942 858.582 112.165C856.425 113.316 854.556 114.9 852.969 116.915C851.457 118.858 850.021 121.268 848.653 124.147C847.361 126.953 846.352 130.48 845.637 134.726C844.984 138.971 844.664 143.756 844.664 149.082V203.053H824.813V88.7417H844.664Z" fill="#9F9F9F"/>
<path d="M804.378 67.3709H783.128V45.2425H804.378V67.3709ZM782.696 203.056V88.7436H802.547V203.056H782.696Z" fill="#9F9F9F"/>
<path d="M645.204 203.054L612.511 88.7417H633.337L651.677 159.013C652.254 161.387 653.044 164.95 654.047 169.699C655.126 174.377 655.954 177.903 656.531 180.278H656.744C657.321 178.047 658.112 174.557 659.122 169.807C660.2 165.058 661.028 161.532 661.605 159.229L680.378 88.7417H706.489L725.042 159.013L730.329 180.493H730.549L735.617 159.013L753.743 88.7417H774.567L741.55 203.054H718.789L698.504 128.141L693.43 108.711H693.217C692.64 110.87 691.812 114.108 690.733 118.426C689.73 122.672 688.933 125.91 688.362 128.141L667.965 203.054H645.204Z" fill="#9F9F9F"/>
<path d="M503.619 203.054L545.159 144.44L505.778 88.7417H529.838L557.027 128.573L584.217 88.7417H608.385L569.22 144.225L610.543 203.054H586.483L557.027 160.2L527.68 203.054H503.619Z" fill="#9F9F9F"/>
<path d="M401.964 123.296C402.611 118.906 403.978 114.624 406.064 110.451C408.222 106.204 411.099 102.211 414.695 98.4686C418.292 94.7268 422.968 91.7041 428.722 89.4012C434.548 87.0989 441.022 85.9474 448.143 85.9474C456.127 85.9474 463.068 86.9909 468.966 89.0774C474.865 91.0923 479.361 93.5753 482.453 96.5258C485.618 99.4763 488.099 103.147 489.898 107.536C491.768 111.854 492.919 115.74 493.351 119.194C493.854 122.648 494.106 126.498 494.106 130.744V179.858C494.106 187.99 494.682 195.726 495.832 203.066H474.685C474.397 199.396 474.253 193.855 474.253 186.443V182.017H474.037C473.246 184.607 472.06 187.126 470.477 189.573C468.895 192.02 466.701 194.538 463.895 197.129C461.09 199.72 457.314 201.807 452.567 203.39C447.819 204.973 442.46 205.765 436.49 205.765C429.873 205.765 423.939 204.793 418.687 202.85C413.509 200.835 409.337 198.208 406.172 194.971C403.007 191.66 400.597 188.062 398.943 184.176C397.289 180.218 396.461 176.116 396.461 171.87C396.461 167.984 397.073 164.422 398.295 161.184C399.519 157.946 401.065 155.211 402.935 152.98C404.877 150.749 407.323 148.734 410.272 146.935C413.221 145.136 416.062 143.733 418.795 142.726C421.529 141.646 424.729 140.675 428.398 139.811C432.139 138.876 435.304 138.228 437.893 137.868C440.483 137.508 443.503 137.077 446.956 136.573C450.409 136.069 452.854 135.673 454.293 135.386C461.773 134.018 466.952 132.147 469.829 129.773C472.779 127.398 474.253 123.835 474.253 119.086C474.253 114.192 471.988 110.235 467.456 107.212C462.996 104.189 456.775 102.678 448.79 102.678C441.885 102.678 435.987 104.55 431.096 108.291C426.276 112.034 423.183 117.035 421.817 123.296H401.964ZM416.098 171.87C416.098 177.195 418.292 181.477 422.68 184.716C427.139 187.954 432.894 189.573 439.943 189.573C444.474 189.573 448.754 188.817 452.782 187.306C456.81 185.795 460.479 183.528 463.787 180.506C467.168 177.411 469.829 173.273 471.772 168.092C473.714 162.839 474.685 156.794 474.685 149.958L474.469 134.09C473.606 136.969 472.347 139.415 470.693 141.43C469.111 143.373 465.981 145.388 461.306 147.475C456.702 149.562 450.48 151.289 442.64 152.656C433.721 154.239 427.068 156.47 422.68 159.349C418.292 162.228 416.098 166.401 416.098 171.87Z" fill="#9F9F9F"/>
<path d="M297.682 62.9452V45.2425H415.395V62.9452H367.058V203.056H346.019V62.9452H297.682Z" fill="#9F9F9F"/>
</g>
<defs>
<clipPath id="clip0_174_722">
<rect width="991" height="251" fill="white"/>
</clipPath>
</defs>
</svg>
