<svg xmlns="http://www.w3.org/2000/svg" width="100%" viewBox="0 0 110 40" fill="none" class="svg-logo"><path d="M85.1444 25.0619V33.8143C85.1444 34.5718 85.4389 34.7821 85.8597 34.7821C86.0701 34.7821 86.2384 34.7401 86.4909 34.6138L86.7013 39.1163C85.8597 39.6212 84.8077 39.9579 83.5033 39.9579C82.1568 39.9579 80.8102 39.495 79.9266 38.5693C79.5899 38.1905 79.3375 37.8118 79.1271 37.349C78.538 38.948 76.8127 39.9158 74.7929 39.9158C71.4266 39.9158 69.491 37.5173 69.491 33.6881C69.491 29.2277 72.5627 26.9975 76.5182 26.9975C77.2335 26.9975 77.9909 27.1238 78.4117 27.25V24.6411C78.4117 23.8416 78.2013 23.2104 77.4018 23.2104C76.6023 23.2104 76.2657 24.2203 76.3919 25.9455L70.1222 24.8515C70.2063 20.8961 72.9835 17.9084 77.8647 17.9084C82.8721 17.9084 85.1444 20.307 85.1444 25.0619ZM78.4117 33.6881V30.9109C78.2434 30.8267 78.033 30.7846 77.7805 30.7846C76.6865 30.7846 76.0132 31.6262 76.0132 33.1411C76.0132 34.5297 76.4761 35.245 77.2756 35.245C77.9489 35.245 78.4117 34.7401 78.4117 33.6881Z" fill="currentColor"></path><path d="M68.5563 34.1931L68.8088 39.1164C67.9672 39.5792 66.6207 39.9579 65.1479 39.9579C62.0762 39.9579 59.8881 38.5693 59.8881 34.4877V9.95557H66.9573V33.4357C66.9573 34.151 67.2519 34.4456 67.7568 34.4456C68.0514 34.4456 68.2618 34.4035 68.5563 34.1931Z" fill="currentColor"></path><path d="M57.9675 33.4357L58.6829 38.6115C57.4205 39.5372 55.6953 40.0001 53.97 40.0001C50.0146 40.0001 47.8686 37.7278 47.8686 33.6461V23.463H46.3116V18.2452H47.9106V14.2056L54.9799 13.2378V18.2452H58.2621V23.463H54.9799V32.5521C54.9799 33.6041 55.3586 34.109 56.2002 34.109C56.7893 34.109 57.3364 33.9407 57.9675 33.4357Z" fill="currentColor"></path><path d="M39.2055 39.6634L37.0174 34.151H36.9332L34.7872 39.6634H28.3491L33.1882 28.9753L28.6437 18.2451H35.6288L37.4803 23.3367H37.6065L39.458 18.2451H45.854L41.3095 28.4282L46.1486 39.6634H39.2055Z" fill="currentColor"></path><path d="M21.2807 34.9505C22.2486 34.9505 22.5852 33.5619 22.7114 32.0049L28.6867 33.1831C28.0134 37.349 25.3203 40 21.2807 40C16.1892 40 12.9491 36.2128 12.9491 28.9752C12.9491 22.2847 15.9788 17.9084 21.4491 17.9084C26.3302 17.9084 28.855 21.7376 28.855 27.25C28.855 28.0495 28.8129 29.1436 28.6025 30.4901H19.5976C19.5976 33.6039 20.1867 34.9505 21.2807 34.9505ZM19.6817 26.8713H22.5431C22.5852 26.5767 22.5852 26.3243 22.5852 26.0297C22.5852 24.3045 22.3327 22.9159 21.3228 22.9159C20.2288 22.9159 19.7238 24.4728 19.6817 26.8713Z" fill="currentColor"></path><path d="M11.6559 33.4357L12.3712 38.6115C11.1089 39.5372 9.38363 40.0001 7.65839 40.0001C3.70296 40.0001 1.55693 37.7278 1.55693 33.6461V23.463H0V18.2452H1.599V14.2056L8.66829 13.2378V18.2452H11.9505V23.463H8.66829V32.5521C8.66829 33.6041 9.047 34.109 9.88858 34.109C10.4777 34.109 11.0247 33.9407 11.6559 33.4357Z" fill="currentColor"></path><path d="M109.529 10.3012C108.407 6.0348 104.717 2.463 99.8951 0.980641C94.098 -0.803842 87.5269 -0.10925 83.5435 2.70865C80.8936 4.58631 79.4245 7.29409 79.2946 10.544C79.2268 12.2692 79.772 13.7431 80.8738 14.8047C82.0886 15.9793 83.9362 16.5977 85.8092 16.4565C88.4563 16.2589 90.6316 14.6551 91.53 13.8899C91.1995 13.5087 90.5893 12.9327 89.8321 12.7831C89.8335 12.7836 89.8352 12.7845 89.8366 12.7853C88.7651 12.3166 87.4466 12.4784 87.4308 12.4809L87.2048 10.8009C87.3347 10.784 90.3378 10.4028 91.9622 12.2805L92.8776 11.3459C90.4028 9.12939 87.6031 9.45693 87.5749 9.46257L87.3602 7.77973C87.3715 7.77691 87.4054 7.77409 87.4591 7.76845C88.0693 7.7148 91.2531 7.57644 94.0669 10.1346L94.9003 9.28469C92.0131 6.85079 87.6032 6.45267 87.5438 6.44703L87.6823 4.75855C88.0297 4.78679 96.036 5.49831 98.4147 11.2216C99.3385 11.4588 101.491 12.0405 102.582 12.5261C104.912 13.5624 105.325 14.5704 105.395 14.9544L105.573 15.9511H99.6239L98.4656 16.7389C97.7847 17.2527 96.601 17.9078 94.7873 18.1535C94.2421 18.2297 93.7618 18.4499 93.3974 18.7972L88.1173 22.6683C89.1371 23.7243 90.722 25.3027 91.5808 25.8674C93.0075 26.802 93.9568 27.0222 94.5387 27.0222C94.8297 27.0222 95.0274 26.9686 95.1461 26.9178L96.0219 26.5563L94.3325 23.5013C97.2282 23.7752 103.07 23.6735 107.212 19.3139C109.577 16.8236 110.399 13.6245 109.529 10.3012Z" fill="currentColor"></path><path d="M95.496 13.9238C95.9028 13.9238 96.2334 13.5935 96.2334 13.1869C96.2334 12.7803 95.9028 12.45 95.496 12.45C95.0892 12.45 94.7615 12.7803 94.7615 13.1869C94.7615 13.5935 95.0892 13.9238 95.496 13.9238Z" fill="currentColor"></path></svg>