<svg width="111" height="29" viewBox="0 0 111 29" fill="none" xmlns="http://www.w3.org/2000/svg" class="h-[28.32px] transition-opacity duration-300 opacity-100"><path d="M11.3534 12.4093H6.51797L0.0644531 0.004165H4.46467L9.03357 9.1253L13.3193 0.004165H17.3571L11.3534 12.4093ZM26.0368 7.33856L23.6357 2.68636L21.3346 7.33856H26.0368ZM28.6357 12.4093L27.4695 10.1415H19.9519L18.8357 12.4093H14.8853L21.1534 0.004165H26.1867L32.8235 12.4093H28.6357ZM33.5044 0.004165H37.3903V9.3273H46.0117V12.4135H33.5065V0.004165H33.5044ZM57.6255 7.33856L55.2223 2.68636L52.9212 7.33856H57.6234H57.6255ZM60.2244 12.4093L59.0582 10.1415H51.5406L50.4244 12.4093H46.474L52.7421 0.004165H57.7754L64.4122 12.4093H60.2244ZM68.979 2.81964V5.25402H74.8661C75.9823 5.25402 76.4321 4.72092 76.4321 4.03787V4.01913C76.4321 3.36732 76.001 2.81964 74.8661 2.81964H68.979ZM68.979 8.00494V12.4052H65.0931V0H75.0952C79.2288 0 80.4825 1.43273 80.4825 3.21947V3.42147C80.4825 5.20405 78.9998 5.8746 78.1814 6.14115C79.4496 6.50766 80.5324 7.39062 80.5324 8.99411V10.8121C80.5324 11.8137 80.647 12.1303 80.7657 12.3281V12.4114H76.8153C76.7007 12.2594 76.632 12.0761 76.632 11.6263V10.1936C76.632 8.67757 75.9656 8.00702 74.0456 8.00702H68.9748L68.979 8.00494Z" fill="white"></path><path d="M11.1515 23.0273L8.74838 18.3751L6.44727 23.0273H11.1494H11.1515ZM13.7504 28.0981L12.5843 25.8303H5.0666L3.95041 28.0981H0L6.26818 15.6929H11.3015L17.9382 28.0981H13.7504ZM21.0952 28.0981V18.6271H15.7579V15.6929H30.3621V18.6271H25.0123V28.0981H21.0952ZM39.5124 15.4763H40.2288C48.0317 15.4763 48.9501 19.3934 48.9501 21.6112V22.111C48.9501 24.2976 48.0505 28.3167 40.2288 28.3167H39.5124C31.6595 28.3167 30.7765 24.2976 30.7765 22.111V21.6112C30.7765 19.3934 31.6574 15.4763 39.5124 15.4763ZM44.881 21.9611V21.7279C44.881 20.3076 44.0647 18.4771 39.8623 18.4771C35.6599 18.4771 34.8415 20.3097 34.8415 21.7279V21.9298C34.8415 23.3501 35.6599 25.2972 39.8623 25.2972C44.0647 25.2972 44.881 23.3959 44.881 21.9632V21.9611ZM50.3412 28.096V15.6908H55.8617L60.1474 23.4105L64.4498 15.6908H69.7684V28.096H65.9346V19.508L61.0471 28.096H58.9625L54.075 19.508V28.096H50.3412ZM75.5597 15.6908V28.096H71.6738V15.6908H75.5597ZM85.9428 28.3126H85.2576C78.069 28.3126 76.9549 24.2934 76.9549 22.0944V21.6112C76.9549 19.3601 77.9232 15.4763 85.2576 15.4763H85.9428C93.1314 15.4763 94.2476 18.9124 94.2476 20.3638V20.5471H90.1285C90.0285 20.2118 89.5267 18.4813 85.5908 18.4813C81.8716 18.4813 81.0219 20.1494 81.0219 21.7008V21.9028C81.0219 23.3667 82.0049 25.3055 85.6242 25.3055C89.6433 25.3055 90.0431 23.3855 90.1431 23.1064H94.2622V23.2897C94.2622 24.8557 93.0273 28.323 85.9407 28.323L85.9448 28.3146L85.9428 28.3126ZM103.381 28.3126H102.228C95.724 28.3126 94.9764 25.5117 94.9764 23.8769V23.6937H99.0268C99.0768 24.4413 99.5099 25.6595 102.711 25.6595H102.944C106.213 25.6595 106.578 25.0077 106.578 24.3413C106.578 23.625 106.193 23.1752 103.327 23.0919L101.19 23.0419C96.557 22.9086 95.1368 21.3426 95.1368 19.408V19.256C95.1368 17.4047 96.2384 15.4722 101.888 15.4722H103.042C108.91 15.4722 110.243 17.5255 110.243 19.3893V19.5538H106.205C106.122 19.0852 105.87 18.0711 102.619 18.0711H102.352C99.3496 18.0711 99.133 18.6042 99.133 19.1373C99.133 19.6704 99.4683 20.1514 101.998 20.2035L104.083 20.2368C108.752 20.3201 110.636 21.453 110.636 23.9207V24.1539C110.636 26.2072 109.601 28.3063 103.367 28.3063L103.381 28.3146V28.3126Z" fill="white"></path></svg>