<svg viewBox="0 0 100 28" xmlns="http://www.w3.org/2000/svg">
  <!-- Bolt icon — top half -->
  <polygon points="4.07,7.43 0,0.01 0,8.65 4.07,16.07" fill="black"/>
  <!-- Bolt icon — bottom half -->
  <polygon points="4.07,19.37 8.15,11.95 8.15,20.59 4.07,28.01" fill="black"/>
  <!-- SILARES wordmark (paths from silares.com) -->
  <g transform="translate(12.1,7.7) scale(0.969)">
    <path fill="black" d="M1.382 9.234c1.367 1.183 2.55 1.7 3.95 1.7 1.4 0 2.384-.567 2.384-1.466 0-.8-.533-1.2-1.917-1.434l-2.316-.4c-2-.333-3.05-1.416-3.05-3.116C.434 2.334 2.2.984 5.034.984c1.7 0 3.517.616 4.817 1.634l-1.3 1.8c-1.25-.95-2.417-1.4-3.684-1.4-1.266 0-2.133.517-2.133 1.316 0 .717.467 1.083 1.667 1.267l2.2.367c2.334.383 3.484 1.483 3.484 3.283 0 2.284-1.917 3.733-4.917 3.733A7.74 7.74 0 0 1 0 10.968l1.383-1.734ZM14.533 1.152h2.417V12.82h-2.417V1.152ZM22.068 1.152h2.417v9.534h6.383v2.134h-8.8V1.152ZM39.469 1.152h2.8L47 12.82h-2.617l-1.183-3.067h-4.816l-1.2 3.067h-2.517l4.8-11.668Zm3 6.667-1.65-4.3-1.684 4.3h3.333ZM50.986 1.15h5.7c2.367 0 4.034 1.483 4.034 3.616 0 1.483-.9 2.7-2.283 3.25l2.583 4.8h-2.7l-2.284-4.467h-2.633v4.467h-2.417V1.148v.001Zm2.417 2.083v3.133h3.067c1.084 0 1.8-.634 1.8-1.567 0-.933-.717-1.566-1.8-1.566h-3.067ZM65.305 1.152h8.966v2.1h-6.55V5.92h4.317v2.033h-4.316v2.766h6.616v2.1h-9.033V1.153ZM79.439 9.234c1.366 1.183 2.55 1.7 3.95 1.7 1.4 0 2.384-.567 2.384-1.466 0-.8-.534-1.2-1.917-1.434l-2.316-.4c-2-.333-3.05-1.416-3.05-3.116 0-2.184 1.767-3.534 4.6-3.534 1.7 0 3.516.616 4.816 1.634l-1.3 1.8c-1.25-.95-2.416-1.4-3.683-1.4-1.266 0-2.133.517-2.133 1.316 0 .717.466 1.083 1.667 1.267l2.2.367c2.334.383 3.484 1.483 3.484 3.283 0 2.284-1.917 3.733-4.917 3.733a7.74 7.74 0 0 1-5.167-2.016l1.383-1.734h-.001Z"/>
  </g>
</svg>
