<svg width="406" height="71" viewBox="0 0 406 71" fill="none" xmlns="http://www.w3.org/2000/svg">
<g clip-path="url(#clip0_270_489)">
<path d="M46.0855 13.5264C46.0855 7.878 40.9596 4.94922 33.2101 4.94922C22.5284 4.94922 15.297 12.4804 15.297 20.8485C15.297 25.0325 16.664 28.1704 18.549 32.4536C20.6434 37.5845 22.7379 40.1609 22.7379 44.6974C22.7379 49.509 19.8056 51.9092 14.1506 51.9092C9.85143 51.9092 7.12867 50.1365 7.12867 48.3528C7.02946 46.7893 8.705 45.8424 8.705 43.5412C8.74835 42.9943 8.67223 42.4445 8.48189 41.9297C8.29154 41.4151 7.99151 40.9479 7.60257 40.5604C7.21362 40.173 6.74505 39.8746 6.22926 39.6858C5.71348 39.4971 5.1628 39.4226 4.61533 39.4673C3.98523 39.4722 3.36272 39.6049 2.78555 39.8575C2.20837 40.11 1.68857 40.477 1.25768 40.9362C0.826793 41.3955 0.493802 41.9373 0.278902 42.5289C0.0640026 43.1206 -0.0283173 43.7497 0.00753784 44.378C0.117772 50.2357 5.87201 54.9481 14.2498 54.9481C26.9267 54.9481 33.4196 47.7252 33.4196 40.6344C33.3094 35.6136 31.744 32.927 29.4401 26.8272C27.7646 22.2248 25.4607 17.9416 25.4607 14.5944C25.4607 10.9279 28.0732 7.98808 33.0999 7.98808C37.6085 7.98808 38.6116 9.3534 38.6116 10.7077C38.6116 12.062 37.5644 13.119 37.5644 15.112C37.5644 17.314 39.24 18.6684 41.7533 18.6684C44.2666 18.6684 46.0855 16.5103 46.0855 13.5264Z" fill="white"/>
<path d="M85.3462 47.0276L83.6486 45.4641C80.3416 49.5491 77.244 51.3218 75.2378 51.3218C74.1354 51.3218 73.5401 50.7052 73.5401 49.5491C73.5401 47.9305 75.0063 45.0788 76.8472 41.5333L88.9071 18.4332C87.1368 18.85 85.3239 19.057 83.5054 19.0499C81.6891 19.0191 79.8802 18.8126 78.1039 18.4332L69.9906 33.3525C66.9812 39.056 62.8143 45.0678 58.8018 48.4589C56.7956 50.2317 54.8665 51.4649 52.783 51.4649C51.394 51.4649 50.7768 50.3638 50.7768 49.1526C50.6995 46.9506 52.9814 43.5263 56.5641 38.054C60.7309 31.8881 63.1781 27.4178 63.1781 24.3349C63.101 20.9436 61.712 17.7285 56.0019 17.7285C50.7547 17.7285 45.8162 20.8115 42.7737 26.6691L44.7028 27.7702C47.7894 22.6833 51.1074 21.0648 52.6508 21.0648C53.6539 21.0648 54.0397 21.5272 54.0397 22.4521C54.0397 24.456 52.6508 26.0745 47.0949 34.938C43.2367 41.181 41.3076 43.9557 41.3076 47.8094C41.3848 52.6651 44.8572 54.5919 49.487 54.5919C56.2002 54.5919 61.9104 49.5821 66.0773 43.7245H66.3859C65.5269 45.4115 64.978 47.2389 64.7655 49.1197C64.7655 52.7421 67.1576 54.6249 71.3244 54.6249C77.5527 54.658 82.0282 51.2667 85.3462 47.0276Z" fill="white"/>
<path d="M149.429 51.6441C146.729 51.6441 144.491 50.2567 144.491 46.4801C144.51 43.7719 144.881 41.0777 145.593 38.4645C149.33 37.6413 153.011 36.5859 156.617 35.3045C162.481 33.3005 171.432 30.5258 171.432 23.9745C171.355 20.4291 168.732 17.8086 161.511 17.8086C149.628 17.8086 133.886 29.4468 133.886 42.7035C133.886 48.7153 137.59 54.6499 147.313 54.6499C157.036 54.6499 163.44 49.1446 167.299 42.0098L165.215 40.6224C161.235 47.405 156.297 51.6441 149.429 51.6441ZM161.555 20.1208C163.561 20.1208 164.41 21.2219 164.41 23.6663C164.41 28.2907 160.629 30.9112 156.385 32.838C153.084 34.0997 149.708 35.1551 146.277 35.9981C149.352 27.1346 155.679 20.1318 161.544 20.1318L161.555 20.1208Z" fill="white"/>
<path d="M201.62 24.5911C203.472 26.7932 204.707 27.2887 206.327 27.2887C206.926 27.2895 207.518 27.1687 208.067 26.9336C208.617 26.6987 209.113 26.3545 209.526 25.9219C209.938 25.4892 210.258 24.9774 210.466 24.4174C210.674 23.8574 210.766 23.2609 210.736 22.6643C210.736 19.4272 208.653 17.8086 205.567 17.8086C200.055 17.8086 194.686 21.8935 189.362 30.3717H188.899C190.057 27.4428 190.674 25.439 190.597 23.6663C190.597 20.5062 189.208 17.8086 184.655 17.8086C179.794 17.8086 175.241 21.1999 172.155 26.7492L174.238 27.8503C177.093 22.9946 179.871 21.2439 181.723 21.2439C182.649 21.2439 183.035 21.8605 183.035 22.7083C183.035 24.0957 181.878 26.3308 180.257 29.4908L167.371 54.1545C169.167 53.6692 171.021 53.4358 172.882 53.4608C174.704 53.482 176.516 53.7148 178.284 54.1545L180.753 49.2217C187.621 35.2713 196.108 23.2478 199.118 23.2478C199.618 23.2225 200.116 23.3342 200.557 23.5709C200.997 23.8078 201.366 24.1605 201.62 24.5911Z" fill="white"/>
<path d="M234.891 24.5317C234.891 20.2155 230.955 17.8262 224.969 17.8262C216.636 17.8262 210.639 23.5297 210.639 30.1581C210.639 33.1639 211.643 35.7844 213.031 38.9665C214.574 42.7431 216.041 44.5929 216.041 47.6759C216.041 50.7588 214.189 52.3774 210.408 52.3774C207.475 52.3774 205.392 51.1442 205.392 49.911C205.392 48.6778 206.859 48.0612 206.859 45.9032C206.878 45.4565 206.803 45.0108 206.638 44.5952C206.473 44.1796 206.222 43.8035 205.902 43.4916C205.581 43.1797 205.198 42.939 204.778 42.7853C204.357 42.6316 203.91 42.5684 203.464 42.5999C202.931 42.5933 202.404 42.6956 201.913 42.9005C201.422 43.1054 200.978 43.4086 200.61 43.7914C200.241 44.1742 199.955 44.6285 199.769 45.1262C199.582 45.6239 199.501 46.1544 199.527 46.6849C199.527 51.3864 204.389 54.7006 210.485 54.7006C220.516 54.7006 225.609 49.1953 225.532 44.0643C225.532 40.3648 224.529 38.5592 222.831 33.9677C221.729 30.5765 219.745 27.0311 219.745 24.5647C219.745 22.3626 221.211 20.1605 224.838 20.1605C227.77 20.1605 228.618 21.0854 228.618 22.0873C228.618 23.3976 227.693 24.0912 227.77 25.8639C227.847 27.6367 229.159 28.7927 231.242 28.7927C233.326 28.7927 234.968 26.976 234.891 24.5317Z" fill="white"/>
<path d="M397.369 18.4931L405.162 3.54075L404.545 3.23242C400.796 5.97218 396.302 7.50824 391.658 7.63665L385.949 18.5041H378.827L377.438 21.4329H384.46L376.358 36.5393C373.194 42.397 371.806 44.9404 371.806 48.3317C371.806 51.4147 373.812 54.6518 379.521 54.6518C386.621 54.6518 393.257 49.1465 395.495 45.4029L393.489 43.8614C391.283 47.4068 386.698 50.9523 383.92 50.9523C383.671 50.9761 383.42 50.9446 383.184 50.8601C382.948 50.7756 382.735 50.6401 382.558 50.4633C382.381 50.2866 382.245 50.0728 382.16 49.8376C382.076 49.6023 382.044 49.3513 382.068 49.1024C382.068 46.7132 383.071 45.0176 385.849 40.0848L395.88 21.4329H404.523L405.835 18.5041L397.369 18.4931Z" fill="white"/>
<path d="M124.052 17.8086C118.342 17.8086 112.555 21.7394 106.922 30.1405H106.459C107.525 28.2196 108.158 26.0886 108.311 23.8975C108.311 19.8896 106.536 17.8086 102.601 17.8086C97.8167 17.8086 93.1865 21.1999 90.1002 26.7492L92.1061 27.8503C95.0384 23.1488 97.7393 21.2439 99.6687 21.2439C100.518 21.2439 100.903 21.7835 100.903 22.7083C100.903 23.8094 100.44 25.2518 98.8197 28.2136L76.4421 71.0006C78.2383 70.5154 80.0933 70.2819 81.9538 70.307C83.8587 70.3288 85.7553 70.5613 87.6091 71.0006L98.6984 49.7172H98.9298C99.5474 52.3377 102.016 54.6499 106.646 54.6499C111.979 54.7487 117.202 53.1271 121.539 50.0255C128.484 45.0928 134.348 35.7669 134.348 28.1366C134.315 22.5872 132.155 17.8086 124.052 17.8086ZM113.635 47.9445C111.089 50.5651 108.62 51.9524 105.765 51.9524C102.457 51.9524 101.355 49.3319 101.355 46.7884C101.485 44.679 102.149 42.637 103.284 40.8537L105.599 36.5376C109.92 28.4448 116.402 21.5852 120.723 21.5852C123.501 21.5852 124.196 23.2038 124.196 25.7472C124.173 32.9921 119.764 41.8557 113.635 47.9445Z" fill="white"/>
<path d="M363.082 17.8086C357.372 17.8086 351.585 21.7394 345.952 30.1405H345.489C346.555 28.2196 347.188 26.0886 347.341 23.8975C347.341 19.8896 345.565 17.8086 341.63 17.8086C336.846 17.8086 332.216 21.1999 329.13 26.7492L331.136 27.8503C334.068 23.1488 336.769 21.2439 338.698 21.2439C339.547 21.2439 339.933 21.7835 339.933 22.7083C339.933 23.8094 339.469 25.2518 337.85 28.2136L315.659 71.0006C317.455 70.5154 319.31 70.2819 321.171 70.307C323.075 70.3288 324.972 70.5613 326.826 71.0006L337.728 49.7172H337.96C338.576 52.3377 341.046 54.6499 345.676 54.6499C351.009 54.7487 356.231 53.1271 360.568 50.0255C367.513 45.0928 373.378 35.7669 373.378 28.1366C373.323 22.5872 371.184 17.8086 363.082 17.8086ZM352.665 47.9445C350.118 50.5651 347.649 51.9524 344.794 51.9524C341.487 51.9524 340.385 49.3319 340.385 46.7884C340.514 44.679 341.178 42.637 342.314 40.8537L344.629 36.5376C348.95 28.4448 355.431 21.5852 359.753 21.5852C362.53 21.5852 363.225 23.2038 363.225 25.7472C363.237 32.9921 358.838 41.8557 352.665 47.9445Z" fill="white"/>
<path d="M326.74 11.33C327.487 11.336 328.229 11.192 328.92 10.9067C329.612 10.6212 330.238 10.2 330.764 9.66816C331.289 9.13631 331.702 8.50449 331.978 7.81025C332.254 7.116 332.388 6.37342 332.372 5.62648C332.361 4.12449 331.753 2.68845 330.683 1.6336C329.612 0.578756 328.166 -0.0086975 326.662 9.73468e-05C325.929 -8.01164e-05 325.202 0.14619 324.525 0.430399C323.848 0.714609 323.234 1.131 322.721 1.65511C322.208 2.17922 321.805 2.80053 321.535 3.48249C321.265 4.16447 321.134 4.89339 321.15 5.62648C321.142 7.12094 321.724 8.55852 322.77 9.62654C323.817 10.6946 325.243 11.3068 326.74 11.33Z" fill="white"/>
<path d="M324.035 46.4803L322.183 44.8617C319.328 49.0237 315.933 51.1818 314.081 51.1818C312.692 51.1818 312.075 50.6422 312.075 49.409C312.075 46.9427 314.698 43.4744 319.328 36.1964C321.412 32.8932 325.038 27.3879 325.038 24.2499C325.038 20.0879 322.029 17.7757 318.017 17.7757C315.871 17.8196 313.775 18.4191 311.932 19.5154C309.202 21.3099 306.994 23.7894 305.527 26.7052H305.064C306.045 24.2389 307.269 20.0989 304.38 18.4254H304.325C303.428 17.9716 302.431 17.7483 301.426 17.7757C295.915 17.7757 289.862 23.0387 284.538 31.5169H284.075C285.233 28.5881 286.534 25.406 286.456 23.6334C286.456 20.4733 285.067 17.7757 280.515 17.7757C278.02 17.8243 275.604 18.6607 273.614 20.165C271.282 21.9298 269.366 24.1851 268.003 26.7714H267.54C268.323 24.7785 268.455 21.5633 266.019 19.6915C264.051 18.3594 261.7 17.7095 259.327 17.8418C253.355 17.8871 247.55 19.8136 242.737 23.3471C235.87 28.2027 231.009 35.2165 231.009 43.0009C231.009 49.7835 235.484 54.6391 244.126 54.6391C251.688 54.6391 258.711 49.7834 262.955 43.3863L261.025 41.7677C256.704 47.8566 250.994 51.6773 245.823 51.6773C243.2 51.6773 241.348 50.5761 241.348 46.6674C241.348 36.1853 251.269 20.0769 259.327 20.0769C261.643 20.0769 262.414 20.7706 262.414 21.6955C262.414 23.0057 261.257 24.316 261.257 25.8575C261.251 26.4947 261.443 27.1181 261.808 27.6412C261.808 27.6963 261.907 27.7513 261.951 27.8173C262.042 27.9209 262.142 28.0167 262.248 28.1036L262.359 28.2027L262.591 28.3678C264.299 29.4689 268.014 30.0966 271.784 25.439C273.989 22.4662 276.116 21.3211 277.604 21.3211C278.531 21.3211 278.916 21.9377 278.916 22.7855C278.916 24.1728 277.759 26.408 276.138 29.5681L263.252 54.2317C265.048 53.7464 266.903 53.513 268.763 53.5381C270.585 53.5592 272.398 53.792 274.165 54.2317L276.635 49.299C283.502 35.3485 291.99 23.325 294.999 23.325C295.503 23.2881 296.008 23.3909 296.457 23.6221C296.906 23.8533 297.283 24.2039 297.545 24.6354L297.667 24.7675C298.183 25.7596 298.754 26.7227 299.376 27.6522C300.566 29.1827 304.348 30.9554 308.878 25.3179C311.292 22.5213 313.155 21.4862 314.203 21.4862C315.249 21.4862 315.591 21.9487 315.591 22.9507C315.668 24.6463 311.887 29.8873 309.65 33.4327C305.715 39.4445 302.705 44.8397 302.705 47.8455C302.782 51.5451 304.909 54.7052 310.035 54.7052C316.705 54.6501 321.257 50.4881 324.035 46.4803Z" fill="white"/>
</g>
<defs>
<clipPath id="clip0_270_489">
<rect width="406" height="71" fill="white"/>
</clipPath>
</defs>
</svg>
