<svg xmlns="http://www.w3.org/2000/svg" width="36" height="28" viewBox="0 0 36 28" fill="none">
  <!-- Weave logo: slightly warped rectangular grid -->
  <g stroke="#ffffff" stroke-width="1.2" stroke-linecap="round" fill="none">
    <!-- Outer border - gently curved -->
    <path d="M2.5 1.5 Q18 0, 33.5 2 Q35 14, 33.5 26 Q18 28, 2.5 26.5 Q1 14, 2.5 1.5Z"/>
    <!-- Vertical dividers -->
    <path d="M9 0.8 Q8.8 14, 9 27.2"/>
    <path d="M15.5 0.3 Q15.5 14, 15.5 27.7"/>
    <path d="M22 0.2 Q22 14, 22 27.8"/>
    <path d="M28.5 1 Q28.7 14, 28.5 27"/>
    <!-- Horizontal dividers -->
    <path d="M1.8 8 Q18 6.8, 34.2 8.5"/>
    <path d="M1.5 14.5 Q18 13.8, 34.5 15"/>
    <path d="M1.8 20.5 Q18 19.8, 34.2 21"/>
  </g>
</svg>